<svg height="512pt" viewBox="0 -10 512.00277 512" width="512pt" xmlns="http://www.w3.org/2000/svg"><path d="m0 444.992188c0 5.101562 1.910156 10.199218 5.730469 14.019531 0 0 27.433593 27.4375 27.441406 27.441406 7.628906 7.628906 20.414063 7.625 28.039063 0l17.945312-17.945313c2.929688-2.929687 2.929688-7.679687 0-10.609374-2.929688-2.929688-7.679688-2.929688-10.609375 0l-17.945313 17.945312c-1.878906 1.882812-4.941406 1.878906-6.820312 0 0 0-27.414062-27.410156-27.441406-27.441406-1.863282-1.863282-1.859375-4.960938 0-6.824219l153.695312-153.691406c1.878906-1.882813 4.941406-1.878907 6.820313 0l27.441406 27.4375c1.882813 1.882812 1.882813 4.945312 0 6.824219l-30.582031 30.582031c-15.421875-9.027344-34.628906-8.425781-49.4375 1.328125-5.339844 3.519531-9.9375 8.117187-13.457032 13.457031-9.753906 14.808594-10.355468 34.015625-1.328124 49.4375l-20.070313 20.074219c-2.933594 2.929687-2.933594 7.679687 0 10.609375 2.925781 2.929687 7.675781 2.929687 10.605469 0l19.0625-19.0625c8.664062 7.601562 19.773437 11.660156 31.058594 11.660156 3.785156 0 7.585937-.464844 11.320312-1.394531l5.972656 5.96875s-5.945312 5.945312-5.945312 5.945312c-8.679688 8.675782-8.667969 23.179688 0 31.847656 8.632812 8.628907 23.164062 8.679688 31.84375 0l24.074218-24.078124c8.824219-8.820313 8.824219-23.175782 0-31.996094l-21.808593-21.8125c3.707031-14.878906-.117188-30.820313-10.265625-42.390625l29.566406-29.566407c.128906-.128906.238281-.269531.363281-.402343 16.21875-3.957031 42.816407-14.792969 61.769531-44.398438 2.371094.871094 4.890626 1.347657 7.492188 1.347657 5.8125 0 11.277344-2.265626 15.386719-6.371094 5.859375-5.863282 7.863281-14.75 5.140625-22.5625 21.613281-12.324219 39.714844-30.429688 52.042968-52.042969 2.277344.796875 4.6875 1.234375 7.171876 1.234375 5.8125 0 11.277343-2.261719 15.386718-6.371094 5.835938-5.839844 7.855469-14.777344 5.140625-22.5625 21.617188-12.324218 39.722657-30.433594 52.046875-52.054687 2.320313.808593 4.742188 1.234375 7.167969 1.234375 5.574219 0 11.144531-2.121094 15.386719-6.363282 6.996094-6.996093 8.351562-18.1875 3.210937-26.644531 3.601563-2.441406 7.84375-3.761719 12.289063-3.761719 5.867187 0 11.378906 2.285157 15.527344 6.429688l.1875.1875c8.523437 8.523438 8.527343 22.449219.011718 31.042969-27.347656 27.59375-71.863281 82.316406-69.484375 144.140625-2.3125 1.121094-4.484375 2.621094-6.402343 4.535156-9.269532 9.269531-9.269532 24.355469 0 33.628906 9.140624 9.136719 24.5 9.128906 33.628906 0 9.269531-9.273437 9.269531-24.355468 0-33.628906-3.476563-3.476562-7.773438-5.652344-12.273438-6.519531-1.425781-55.617188 39.796875-105.976563 65.1875-131.59375 14.3125-14.445313 14.285156-37.867188-.058594-52.210938l-.1875-.1875c-6.980468-6.980469-16.261718-10.828125-26.136718-10.828125-8.246094 0-16.074219 2.691406-22.5 7.644532l-11.332032-11.335938 37.367188-37.367188c8.445312-8.445312 8.445312-22.191406 0-30.640624-8.449219-8.445313-22.191406-8.445313-30.640625 0l-56.109375 56.109374c-2.929688 2.929688-2.929688 7.679688 0 10.609376 2.929688 2.929687 7.679688 2.929687 10.609375 0l56.109375-56.109376c2.597656-2.597656 6.824219-2.597656 9.421875 0 2.597656 2.597657 2.597656 6.824219 0 9.421876l-265.636719 265.636718-9.421875-9.421875 188.542969-188.542969c2.929688-2.929687 2.929688-7.679687 0-10.609374-2.929688-2.929688-7.679688-2.929688-10.609375 0l-189.59375 189.59375c-7.203125-3.011719-15.832031-1.597657-21.683594 4.253906 0 0-153.636719 153.632812-153.695312 153.691406-3.820313 3.824219-5.730469 8.921875-5.730469 14.023438zm437.761719-142.597657c-3.421875 3.421875-8.988281 3.421875-12.410157 0-3.421874-3.421875-3.421874-8.988281 0-12.410156 3.300782-3.300781 9.007813-3.398437 12.410157 0 3.417969 3.421875 3.417969 8.988281 0 12.410156zm-289.113281 102.40625c-3.507813-3.507812-3.503907-9.410156 0-12.910156 3.515624-3.515625 9.402343-3.511719 12.914062 0l29.398438 29.398437-12.914063 12.910157s-29.386719-29.386719-29.398437-29.398438zm58.160156 43.113281-24.078125 24.078126c-2.929688 2.929687-7.695313 2.929687-10.628907 0-2.894531-2.898438-2.890624-7.738282 0-10.628907l29.46875-29.464843 5.238282 5.238281c2.96875 2.96875 2.96875 7.804687 0 10.777343zm-34.636719-66.632812c-9.292969-9.292969-24.851563-9.28125-34.132813 0-9.289062 9.289062-9.289062 24.839844 0 34.128906l9.746094 9.742188c-7.535156-.546875-14.800781-3.742188-20.3125-9.253906-12.152344-12.148438-12.136718-33.050782 0-45.1875 12.097656-12.097657 33.097656-12.085938 45.1875 0 5.511719 5.511718 8.703125 12.78125 9.253906 20.3125 0 0-9.738281-9.738282-9.742187-9.742188zm117.136719-108.960938c-2.609375 2.605469-6.949219 2.605469-9.550782 0l-18.335937-18.332031 9.554687-9.550781s18.308594 18.308594 18.332032 18.332031c2.601562 2.605469 2.597656 6.953125 0 9.550781zm6.710937-24.054687-14.433593-14.4375 48.972656-48.972656 14.433594 14.4375c-11.304688 20.546875-28.429688 37.667969-48.972657 48.972656zm73.03125-55.683594c-2.632812 2.632813-6.917969 2.632813-9.554687 0l-18.332032-18.335937 9.554688-9.550782 18.332031 18.332032c2.632813 2.632812 2.632813 6.917968 0 9.554687zm6.710938-24.058593-14.4375-14.4375 48.972656-48.972657 14.4375 14.4375c-11.304687 20.542969-28.429687 37.667969-48.972656 48.972657zm71.109375-67.15625s1.917968 1.917968 1.917968 1.917968c2.636719 2.636719 2.636719 6.921875 0 9.554688-2.632812 2.632812-6.917968 2.632812-9.550781 0l-18.332031-18.332032 9.550781-9.554687c.003907 0 16.414063 16.410156 16.414063 16.414063zm-196.058594 163.230468 14.242188 14.242188c-12.882813 20.738281-29.882813 31.179687-44.671876 36.382812-.691406-3.851562-2.507812-7.535156-5.476562-10.503906l-2.105469-2.105469zm0 0"/></svg>