<svg height="512pt" viewBox="0 0 512.00025 512" width="512pt" xmlns="http://www.w3.org/2000/svg"><path d="m256 64.265625c17.71875 0 32.132812-14.414063 32.132812-32.132813 0-17.714843-14.414062-32.132812-32.132812-32.132812s-32.132812 14.414062-32.132812 32.132812 14.414062 32.132813 32.132812 32.132813zm0 0"/><path d="m15 238.867188h482c7.441406 0 13.761719-5.460938 14.839844-12.824219 1.082031-7.363281-3.402344-14.40625-10.53125-16.542969l-40.488282-12.144531c-75.808593-22.738281-142.644531-66.890625-193.296874-127.6875-2.847657-3.421875-7.070313-5.398438-11.523438-5.398438-4.449219 0-8.675781 1.976563-11.523438 5.398438-50.648437 60.796875-117.488281 104.949219-193.296874 127.6875l-40.488282 12.144531c-7.128906 2.136719-11.609375 9.179688-10.53125 16.542969s7.398438 12.824219 14.839844 12.824219zm0 0"/><path d="m50.941406 420.691406-49.019531 73.519532c-2.710937 4.070312-2.570313 9.480468.539063 13.4375 2.21875 2.832031 5.710937 4.351562 9.300781 4.351562h164.96875v-96.398438h-116.28125c-3.820313 0-7.390625 1.910157-9.507813 5.089844zm0 0"/><path d="m206.730469 415.601562h98.539062v33.199219h-98.539062zm0 0"/><path d="m206.730469 478.800781h98.539062v33.199219h-98.539062zm0 0"/><path d="m510.078125 494.210938-49.007813-73.519532c-2.128906-3.179687-5.699218-5.089844-9.519531-5.089844h-116.28125v96.398438h164.96875c3.589844 0 7.082031-1.519531 9.300781-4.351562 3.109376-3.957032 3.25-9.367188.539063-13.4375zm0 0"/><path d="m238.867188 335.265625h34.265624v50.335937h-34.265624zm0 0"/><path d="m415.601562 385.601562v-116.734374h-319.199218v116.734374h112.464844v-65.335937c0-8.28125 6.714843-15 15-15h64.265624c8.285157 0 15 6.71875 15 15v65.335937zm0 0"/></svg>